<svg id="Camada_1" data-name="Camada 1" xmlns="http://www.w3.org/2000/svg" viewBox="0 0 49.98 49.98"><g id="surface1"><path d="M23.57,0a25,25,0,1,0,20.91,9.3,26.75,26.75,0,0,0-4.12-4A25,25,0,0,0,23.57,0ZM24.83,1.9c.19,0,.68.1,1.11.14a7.21,7.21,0,0,1,1.68.27,2.55,2.55,0,0,1,1.35,1,1.38,1.38,0,0,1,.14.23,7.42,7.42,0,0,1-1-.09,1.89,1.89,0,0,1-.84-.35,3.15,3.15,0,0,0-2.52-.72,12.33,12.33,0,0,0-2,.36c-.51.12-1.07.23-1.25.26l-.31,0,.36.12a1.64,1.64,0,0,0,.72.13,1.85,1.85,0,0,1,.37,0,2.09,2.09,0,0,1-.59.32A6.55,6.55,0,0,1,20.21,4a3.15,3.15,0,0,0-1.57.44,5,5,0,0,0-1.52,1.9,5.9,5.9,0,0,1-.94,1.37l-.24.26h.24a1.31,1.31,0,0,0,.33,0c.06,0,0,0-.17.28a4.12,4.12,0,0,0-1.05,2.15c0,.14,0,.71,0,1.27,0,1.08,0,1.21-.21,1.47,0,.06-.06.1,0,.1a4.43,4.43,0,0,0,.66-.49,2.35,2.35,0,0,0,.22-.3l.14-.19,0,.8a9.56,9.56,0,0,1-.08,1.18A10.14,10.14,0,0,1,14,18.71a1.26,1.26,0,0,0-.2.34,2.17,2.17,0,0,0,.36-.16,6,6,0,0,0,2.57-2.77l.21-.41,0,.33a9.17,9.17,0,0,1-.5,2.31,10.09,10.09,0,0,1-.87,1.7,10.29,10.29,0,0,1-2.78,2.71,12.76,12.76,0,0,0-3.51,3.35,8.66,8.66,0,0,0-.67,1.23c0,.13-.08.17-.15.19a.19.19,0,0,0-.14.1c0,.08,0,.08,0,0a7.35,7.35,0,0,1,.47-2.16,7.61,7.61,0,0,1,1.74-2.75,8.42,8.42,0,0,0,.93-1.26l.12-.21-.14.07a2,2,0,0,1-1,.2A2.08,2.08,0,0,1,9,21.1L8.86,21l.42-.21a7.83,7.83,0,0,0,2.14-1.58,4.19,4.19,0,0,0,.88-1.36l0-.1-.14.13a1.09,1.09,0,0,1-.69.3c-.37,0-.39,0-.2-.2a4.11,4.11,0,0,0,.84-1.56,7.55,7.55,0,0,0,.37-2.12,8.25,8.25,0,0,1,1.56-4.74,19.1,19.1,0,0,0,1.72-2.73,12.58,12.58,0,0,1,1-1.73c0-.06,0,0-.28.1a2.42,2.42,0,0,0-1,.9l-.25.39s0,0,0-.13l.18-.48a6.66,6.66,0,0,1,.75-1.45A2,2,0,0,1,17,3.86a13.33,13.33,0,0,1,2-.48c.3,0,.77-.1,1.05-.12s.47,0,.41,0L19.71,3l-.63-.22h1a5.25,5.25,0,0,0,2.7-.5,3.54,3.54,0,0,1,1.59-.42Zm3.42,2a13.39,13.39,0,0,1,2.05.66c.49.18,1.1.4,1.36.48.72.23.79.25.95.4a.93.93,0,0,1,.18,1c-.08.33-.08.37.1.54a6.65,6.65,0,0,0,2.23,1,7.77,7.77,0,0,1,3.2,1.68l.29.28-.25.13a6.66,6.66,0,0,1-4.27.44l-.26-.07,0,.16a1.14,1.14,0,0,0,.65.85.63.63,0,0,0,.49.07,5.59,5.59,0,0,1,.57,0,.87.87,0,0,1,.52.11,2.85,2.85,0,0,1,1.5,1.58,2.53,2.53,0,0,1,0,1.13,2.36,2.36,0,0,1-.84,1.28,11.09,11.09,0,0,1-1.11.61c-1.2.6-1.46.77-1.71,1.12a.94.94,0,0,1-.15.18s.09-.25.18-.55.18-.54.18-.56,0,0-.11.05a3.43,3.43,0,0,0-1.42,2.33,3.72,3.72,0,0,0-.06.7l.16-.09a2.77,2.77,0,0,1,.89-.3c.88-.19,1.17-.38,2.1-1.42.66-.74,1-1,1.48-1.09A1.56,1.56,0,0,1,38.93,18a3.9,3.9,0,0,1-.32,1.83,3.33,3.33,0,0,1-.8,1.1,3,3,0,0,0-1.05,2l0,.36-.1-.22a2.36,2.36,0,0,1-.08-1.25,2.06,2.06,0,0,0,0-.33,2.13,2.13,0,0,0-.19.25A4,4,0,0,1,34.94,23a3.86,3.86,0,0,1-.91.3.79.79,0,0,1,.22-.16,3,3,0,0,0,.9-.78,1.12,1.12,0,0,0,.18-.26l-.17.08a2,2,0,0,1-1,.2c-.48,0-.64-.08-.28-.12a1.13,1.13,0,0,0,.78-.4A1.2,1.2,0,0,0,35,21c0-.38-.09-.6-.34-.73a2.19,2.19,0,0,0-1.41.11c-.87.24-1.23.2-1.58-.21a1.3,1.3,0,0,1-.31-1.05A2.11,2.11,0,0,1,31.56,18c0-.07.06-.13.05-.13a2,2,0,0,0-.52.42,2.38,2.38,0,0,0-.6,1.54c0,.24,0,.4-.06.4l-.3-.13A1.11,1.11,0,0,1,29.38,19c0-.11,0-.19,0-.19l-.2.23a1.31,1.31,0,0,1-.21.23,7,7,0,0,1-.28-1.67c0-.27,0-.27-.15-.39a.59.59,0,0,1-.18-.61,1.81,1.81,0,0,1,.6-.95,5.89,5.89,0,0,1,2.27-1.4,1.63,1.63,0,0,0,.31-.13A13.44,13.44,0,0,0,29.33,14a9.3,9.3,0,0,0-4.79,1.57c-.26.16-.48.28-.49.28a1.87,1.87,0,0,1,0-.37A4.29,4.29,0,0,1,24.8,13a2.05,2.05,0,0,0,.16-.24,6,6,0,0,0-.8.46,7.27,7.27,0,0,0-1.44,1.44A14.57,14.57,0,0,0,21.91,16l-.15.27,0-.56a10.91,10.91,0,0,1,.89-3.85,1.8,1.8,0,0,0,.14-.4,1.31,1.31,0,0,0-.41,0c-.35,0-.39,0-.55-.12a.84.84,0,0,1-.36-1,9.94,9.94,0,0,1,1-1.94,4.12,4.12,0,0,1,.73-.79c.2-.15.2-.16-.12-.23s-.38-.12-.38-.25.07-.18.36-.3a5.63,5.63,0,0,0,1.12-.61L24.48,6l-.13,0a13,13,0,0,0-2.29-.21,6.29,6.29,0,0,1-.77,0,4.12,4.12,0,0,0-1.11,0,1.16,1.16,0,0,0-.79.57,3.88,3.88,0,0,0,0,.83c0,.71,0,.73-.09.92l-.1.2,0-.14c0-.08-.06-.3-.1-.48A3,3,0,0,1,19,6.79,3.25,3.25,0,0,1,19,6.11c.06-.24.31-.46.81-.73a7.35,7.35,0,0,1,1.49-.67c.37-.13.83-.31,1-.39a2,2,0,0,1,.37-.13,2,2,0,0,1-.26.32,3.94,3.94,0,0,0-.28.29s1.34.36,1.58.4a4.67,4.67,0,0,0,1.44,0l.18,0L25.13,5l-.24-.23h.16a1.51,1.51,0,0,0,.82-.4,2.38,2.38,0,0,1,.9-.46A5.12,5.12,0,0,1,28.25,3.93ZM39,11.09c.33.48.4.91.4,2.56a7.57,7.57,0,0,1-.2,2.28,1.89,1.89,0,0,1-.28.63,1.85,1.85,0,0,1-.29-.34,2.68,2.68,0,0,0-.46-.51c-.28-.21-.33-.29-.33-.42a1.28,1.28,0,0,1,.09-.35,3.24,3.24,0,0,0,.2-1,4.22,4.22,0,0,0-.15-.77,6.28,6.28,0,0,1-.14-.7c0-.32.12-.56.56-1.2a4.3,4.3,0,0,0,.31-.55l.08-.22,0,.18A1,1,0,0,0,39,11.09ZM8.16,14.3a2.74,2.74,0,0,1,.32.32s-.12.22-.27.46A19.52,19.52,0,0,0,5.64,27.37a19.31,19.31,0,0,0,2,6.4,19.56,19.56,0,0,0,5.62,6.74l.33.25-.26.36a2.83,2.83,0,0,1-.29.37,11.09,11.09,0,0,1-1.13-.86,31.42,31.42,0,0,1-2.51-2.52,20.22,20.22,0,0,1-3.67-6.48,20.5,20.5,0,0,1-1-4.67,28.64,28.64,0,0,1,0-3.93,20.34,20.34,0,0,1,2.16-7.37,13.54,13.54,0,0,1,1-1.65A3,3,0,0,1,8.16,14.3Zm34.4.28a26.66,26.66,0,0,1,1.29,2.56,20.83,20.83,0,0,1,1.3,4.59,20.52,20.52,0,0,1-.5,8.79,20.2,20.2,0,0,1-4,7.61,27.19,27.19,0,0,1-2.33,2.35,16.05,16.05,0,0,1-1.29,1,2.92,2.92,0,0,1-.3-.36l-.26-.37.1-.07a21.5,21.5,0,0,0,3.37-3.17A19.31,19.31,0,0,0,44.4,26.73a22.33,22.33,0,0,0,0-3.47,19.43,19.43,0,0,0-2.63-8.18l-.25-.43.11-.1a4.67,4.67,0,0,0,.36-.3.8.8,0,0,1,.26-.18S42.41,14.32,42.56,14.58ZM33.05,28.71v5.63H31.2V23.62l.24-.07.88-.26.69-.2S33.05,24.23,33.05,28.71ZM21,25.36a2,2,0,0,1,1.43,1.73c0,.16,0,1.59,0,3.77v3.5H20.7l0-3.37a25.4,25.4,0,0,0-.07-3.52.74.74,0,0,0-.38-.46.63.63,0,0,0-.44-.1.59.59,0,0,0-.44.11.74.74,0,0,0-.28.3l-.11.2v6.84H17.12V25.93l.85-.26a8.77,8.77,0,0,1,.88-.23,1.31,1.31,0,0,1,0,.3V26l.24-.24a1.68,1.68,0,0,1,1-.5A3.44,3.44,0,0,1,21,25.36Zm5.83,0a1.44,1.44,0,0,1,.64.39l.21.2.83-.25.88-.26s.05.87.05,4.78c0,4.76,0,5-.13,5.5a2.44,2.44,0,0,1-1.81,1.76,2.9,2.9,0,0,1-2.65-.56,2.75,2.75,0,0,1-.37-.43,2.49,2.49,0,0,1-.35-.88c0-.15,0-.15.09-.19L25.84,35a.57.57,0,0,1,0,.21,1,1,0,0,0,.47.78,1.1,1.1,0,0,0,.31.07.82.82,0,0,0,.86-.5c.08-.18.09-.22.1-1.27V33.16l-.18.2a1.75,1.75,0,0,1-.42.31,1.16,1.16,0,0,1-.67.13,1.72,1.72,0,0,1-1.51-.53,2.83,2.83,0,0,1-.74-1.78,25.39,25.39,0,0,1,0-3.9,2.86,2.86,0,0,1,.69-1.73,1.53,1.53,0,0,1,1-.56A2.94,2.94,0,0,1,26.84,25.36Zm11.27,0a2.23,2.23,0,0,1,1.32,1,4.89,4.89,0,0,1,.48,1.93c.05.53.05,2.72,0,3.23-.14,1.51-.54,2.3-1.37,2.71a2.43,2.43,0,0,1-1.31.25,2.29,2.29,0,0,1-1.89-.65c-.56-.57-.77-1.25-.86-2.79A23.29,23.29,0,0,1,34.54,28c.19-1.61.78-2.41,2-2.63A5.39,5.39,0,0,1,38.11,25.36Zm-24.35.05a2,2,0,0,1,1,.59,2.46,2.46,0,0,1,.67,1.18l.08.28,0,6.92H13.8v-.72l-.17.21a1.91,1.91,0,0,1-.81.57,2.77,2.77,0,0,1-1.28,0,2.19,2.19,0,0,1-1.16-1A4,4,0,0,1,10,31.39a2.55,2.55,0,0,1,1.37-2.21,3.16,3.16,0,0,1,1.64-.3h.65l0-.68c0-.66,0-.67-.12-.88a.71.71,0,0,0-.71-.43.67.67,0,0,0-.42.1.82.82,0,0,0-.25.24,1.42,1.42,0,0,0-.21.65V28H10.31v-.3a2,2,0,0,1,.63-1.61,2.48,2.48,0,0,1,1.2-.68A4.07,4.07,0,0,1,13.76,25.41Zm2,15.43c0,.09,0,.56,0,1s0,.89,0,.89l.85-.61.84-.62.31.15a1.82,1.82,0,0,1,.3.18s-1,1.84-1.44,2.75l-.21.41L16,44.86l-.32-.16.14-.26c.34-.62.79-1.5.78-1.51l-.55.37c-.29.22-.55.4-.57.41s-.14,0-.27-.08L15,43.52l0-.74,0-.74-.08.15c-.05.08-.24.43-.42.78l-.4.76-.07.11-.3-.15a1.46,1.46,0,0,1-.3-.17s.89-1.75,1.45-2.81l.2-.36.29.15.29.16ZM35.52,42c.5.83.9,1.53.89,1.53a2,2,0,0,1-.61.32S34.12,41,34,40.86s0-.09.23-.24a2.26,2.26,0,0,1,.31-.17S35,41.13,35.52,42Zm-2.11-.48a.85.85,0,0,1,.47.48.82.82,0,0,1,0,.73c-.08.19-.08.18,0,.18a.8.8,0,0,1,.47.23,1.36,1.36,0,0,1,.3.64,1,1,0,0,1-.6,1c-.27.13-1.42.63-1.45.63s-1.39-3.07-1.42-3.2.09-.11.65-.36l.84-.35A1.14,1.14,0,0,1,33.41,41.49Zm-13.63.89a1.22,1.22,0,0,1,.86,1.28,6.81,6.81,0,0,1-.43,1.49,1.22,1.22,0,0,1-1.15.74A1.35,1.35,0,0,1,17.78,45a2.3,2.3,0,0,1,.14-1.35,2.67,2.67,0,0,1,.47-1A1.3,1.3,0,0,1,19.78,42.38Zm10.9,0c0,.12.77,3.34.77,3.38a2.2,2.2,0,0,1-.68.18s-.11-.45-.23-1c-.22-.93-.23-1-.27-.83s-.09.38-.17.68a5.14,5.14,0,0,1-.16.58.36.36,0,0,1-.17.06l-.21.05c-.06,0-.15-.08-.54-.55-.26-.31-.47-.54-.47-.53s.1.46.22,1a9.28,9.28,0,0,1,.19,1,1.16,1.16,0,0,1-.34.1l-.32.07,0-.13c-.15-.6-.76-3.33-.74-3.35a4.54,4.54,0,0,1,.61-.15,8.57,8.57,0,0,1,.7.81c.36.46.66.82.67.82l.24-1c.12-.56.23-1,.24-1a5,5,0,0,1,.61-.15S30.66,42.38,30.68,42.41ZM22.33,43a4.36,4.36,0,0,1,.87.17,1.23,1.23,0,0,1,.58.63,1.05,1.05,0,0,1-.56,1.3c-.08,0-.13,0-.13.08s.12.38.28.8l.27.78a5.33,5.33,0,0,1-.78-.09s-.14-.35-.28-.76-.25-.73-.26-.73l-.24,0-.23,0-.08.68c-.05.36-.1.68-.11.69a1.08,1.08,0,0,1-.36,0c-.27,0-.32-.05-.32-.11s.43-3.4.44-3.45.06,0,.12,0S22,42.92,22.33,43Zm4.7.55c0,.23,0,.83,0,1.33,0,.88,0,.92-.05,1.11a1.29,1.29,0,0,1-.64.66,1,1,0,0,1-.6.1,1.18,1.18,0,0,1-.62-.1,1.2,1.2,0,0,1-.61-.66,4.89,4.89,0,0,1-.13-1.47c0-.69,0-1.27,0-1.28a1.39,1.39,0,0,1,.35,0l.33,0,0,.42c0,.24,0,.75,0,1.14a8.74,8.74,0,0,0,.06.9.54.54,0,0,0,.59.49.57.57,0,0,0,.58-.45c0-.06,0-.62,0-1.24s-.05-1.16-.05-1.21.06-.1.43-.11H27Z" transform="translate(0 0)" style="fill:#0c457d"/><path d="M27.81,5.48c-.08,0-.11.08-.11.13a.38.38,0,0,0,.12.26,5.42,5.42,0,0,0,.61,0,2.74,2.74,0,0,1,.7.06,4.54,4.54,0,0,1,.58.31,2.33,2.33,0,0,1,.76.59c.34.36.43.41.39.22a1,1,0,0,0-.48-.59c-.55-.4-.62-.46-.71-.59s-.09-.16-.05-.21,0-.07,0-.07l-.34-.07A3.81,3.81,0,0,0,27.81,5.48Z" transform="translate(0 0)" style="fill:#0c457d"/><path d="M28.88,7.78a4.31,4.31,0,0,0-1.95,1.08l-.1.13L27,9a1.39,1.39,0,0,1,.35.14.9.9,0,0,0,.91,0A1.3,1.3,0,0,1,28.79,9c.27,0,.29,0,.75.22s.8.33,1,.25.15-.13.05-.25-.14-.11-.41-.18c-.59-.13-.75-.3-.78-.84,0-.35-.07-.55-.15-.54Z" transform="translate(0 0)" style="fill:#0c457d"/><path d="M26.54,26.91a.84.84,0,0,0-.45.34c-.23.34-.27.7-.27,2.3s.06,2.09.34,2.41a.67.67,0,0,0,.57.27.82.82,0,0,0,.63-.23c.26-.27.26-.27.26-2.41s0-2.07-.19-2.36a.79.79,0,0,0-.25-.23A1,1,0,0,0,26.54,26.91Z" transform="translate(0 0)" style="fill:#0c457d"/><path d="M36.84,27c-.48.24-.57.69-.57,2.83s.1,2.73.54,2.95a.86.86,0,0,0,1.12-.3,4.39,4.39,0,0,0,.21-1.4,29.26,29.26,0,0,0,0-3.05c-.09-.78-.32-1.08-.84-1.12A.61.61,0,0,0,36.84,27Z" transform="translate(0 0)" style="fill:#0c457d"/><path d="M12.52,30.23c-.38.13-.53.38-.64,1s0,1.37.46,1.58a.88.88,0,0,0,1.12-.28c.2-.31.23-.43.23-1.46v-.92H13.2A2,2,0,0,0,12.52,30.23Z" transform="translate(0 0)" style="fill:#0c457d"/><path d="M32.46,42.25a1.56,1.56,0,0,0-.35.19,3.17,3.17,0,0,0,.32.69,2.76,2.76,0,0,0,.8-.41.36.36,0,0,0,0-.5C33,42.05,32.91,42.06,32.46,42.25Z" transform="translate(0 0)" style="fill:#0c457d"/><path d="M33,43.58l-.36.17.15.36c.09.2.18.37.19.39a2.63,2.63,0,0,0,.84-.4.4.4,0,0,0,0-.47C33.75,43.36,33.54,43.35,33,43.58Z" transform="translate(0 0)" style="fill:#0c457d"/><path d="M19.21,43c-.19,0-.27.12-.4.38a5.46,5.46,0,0,0-.38,1.32.53.53,0,0,0,.55.58c.38,0,.52-.12.75-.87s.26-1,.11-1.18A.64.64,0,0,0,19.21,43Z" transform="translate(0 0)" style="fill:#0c457d"/><path d="M22,43.67a5,5,0,0,0-.09.81,3.85,3.85,0,0,0,.81.09.44.44,0,0,0,.36-.47.38.38,0,0,0-.11-.27c-.12-.13-.25-.17-.7-.22C22.07,43.59,22.06,43.59,22,43.67Z" transform="translate(0 0)" style="fill:#0c457d"/></g></svg>